<svg
  version="1.0"
  xmlns="http://www.w3.org/2000/svg"
  xmlns:xlink="http://www.w3.org/1999/xlink"
  x="0"
  y="0"
  width="800"
  height="600"
  viewBox="0 0 800 600"
  preserveAspectRatio="xMidYMid meet"
  color-interpolation-filters="sRGB"
>
  <defs><linearGradient id="92" x1="0%" y1="0%" x2="100%" y2="0%">
    <stop offset="0%" stop-color="#fa71cd"/>
    <stop offset="100%" stop-color="#9b59b6"/>
  </linearGradient>
    <linearGradient id="93" x1="0%" y1="0%" x2="100%" y2="0%">
      <stop offset="0%" stop-color="#f9d423"/>
      <stop offset="100%" stop-color="#f83600"/>
    </linearGradient>
    <linearGradient id="94" x1="0%" y1="0%" x2="100%" y2="0%">
      <stop offset="0%" stop-color="#0064d2"/>
      <stop offset="100%" stop-color="#1cb0f6"/>
    </linearGradient>
    <linearGradient id="95" x1="0%" y1="0%" x2="100%" y2="0%">
      <stop offset="0%" stop-color="#f00978"/>
      <stop offset="100%" stop-color="#3f51b1"/>
    </linearGradient>
    <linearGradient id="96" x1="0%" y1="0%" x2="100%" y2="0%">
      <stop offset="0%" stop-color="#7873f5"/>
      <stop offset="100%" stop-color="#ec77ab"/>
    </linearGradient>
    <linearGradient id="97" x1="0%" y1="0%" x2="100%" y2="0%">
      <stop offset="0%" stop-color="#f9d423"/>
      <stop offset="100%" stop-color="#e14fad"/>
    </linearGradient>
    <linearGradient id="98" x1="0%" y1="0%" x2="100%" y2="0%">
      <stop offset="0%" stop-color="#009efd"/>
      <stop offset="100%" stop-color="#2af598"/>
    </linearGradient>
    <linearGradient id="99" x1="0%" y1="0%" x2="100%" y2="0%">
      <stop offset="0%" stop-color="#ffcc00"/>
      <stop offset="100%" stop-color="#00b140"/>
    </linearGradient>
    <linearGradient id="100" x1="0%" y1="0%" x2="100%" y2="0%">
      <stop offset="0%" stop-color="#d51007"/>
      <stop offset="100%" stop-color="#ff8177"/>
    </linearGradient>
    <linearGradient id="102" x1="0%" y1="0%" x2="100%" y2="0%">
      <stop offset="0%" stop-color="#a2b6df"/>
      <stop offset="100%" stop-color="#0c3483"/>
    </linearGradient>
    <linearGradient id="103" x1="0%" y1="0%" x2="100%" y2="0%">
      <stop offset="0%" stop-color="#7ac5d8"/>
      <stop offset="100%" stop-color="#eea2a2"/>
    </linearGradient>
    <linearGradient id="104" x1="0%" y1="0%" x2="100%" y2="0%">
      <stop offset="0%" stop-color="#00ecbc"/>
      <stop offset="100%" stop-color="#007adf"/>
    </linearGradient>
    <linearGradient id="105" x1="0%" y1="0%" x2="100%" y2="0%">
      <stop offset="0%" stop-color="#b88746"/>
      <stop offset="100%" stop-color="#fdf5a6"/>
    </linearGradient>
  </defs>
  <g class="imagesvg isNoFont"><g>
    <rect fill="#2aa1a6" fill-opacity="0" stroke-width="2" x="0" y="0" width="800" height="600" class="image-rect"/>
    <svg filter="url(#colors966508102)" x="0" y="0" width="800" height="600" filtersec="colorsf1306371388" class="image-svg-svg primary" style="overflow: visible;">
      <svg xmlns="http://www.w3.org/2000/svg" viewBox="0 -0.01704001985490322 67.19278717041016 68.8234634399414">
        <path d="M11.57 39.66c3.26-3.29 6.43-6.33 9.43-9.54 1.48-1.58 2.47-1.58 4 0C36.68 41.9 48.44 53.61 60.16 65.36c.67.67 1.8 1.29 1.37 2.44s-1.79 1-2.83 1H2.95C.83 68.87 0 68.06 0 65.92q.08-31.52 0-63C0 .74.92 0 3 0q30.76.06 61.49 0c1 0 2.14-.23 2.59 1s-.55 1.66-1.18 2.28c-9 9-18 18-26.89 27-1.26 1.26-2.24 1.43-3.52.07q-2.82-3-5.81-5.8c-1.19-1.13-1.09-2 0-3.11 2.92-2.83 5.77-5.73 8.64-8.62.45-.45 1.23-.88 1-1.59s-1.12-.55-1.74-.55H13.44c-1.39 0-2.5.21-2.5 2 0 8.72.05 17.43.08 26.15.06.07.21.17.55.83z" fill="#000000"/></svg></svg> <defs><filter id="colors966508102"><feColorMatrix type="matrix" values="0 0 0 0 0.1640625  0 0 0 0 0.62890625  0 0 0 0 0.6484375  0 0 0 1 0" class="icon-feColorMatrix "/></filter> <filter id="colorsf1306371388"><feColorMatrix type="matrix" values="0 0 0 0 0.99609375  0 0 0 0 0.99609375  0 0 0 0 0.99609375  0 0 0 1 0" class="icon-fecolormatrix"/></filter> <filter id="colorsb9930289722"><feColorMatrix type="matrix" values="0 0 0 0 0  0 0 0 0 0  0 0 0 0 0  0 0 0 1 0" class="icon-fecolormatrix"/></filter></defs></g></g><defs v-gra="od"/>
</svg>


